<?xml version="1.0" encoding="UTF-8"?>
<svg id="Ebene_2" data-name="Ebene 2" xmlns="http://www.w3.org/2000/svg" viewBox="0 0 158.056 17.495">
  <defs>
    <style>
      .cls-1 {
        fill: #e3e3e3;
      }
    </style>
  </defs>
  <g id="Ebene_1-2" data-name="Ebene 1">
    <g>
      <path class="cls-1" d="M8.898,5.279c.905,1.055,1.358,2.262,1.358,3.619s-.453,2.715-1.358,3.62c-.905.905-1.96,1.508-3.318,1.508s-2.413-.452-3.167-1.508v1.206H0V0h2.413v5.279c.754-1.056,1.81-1.508,3.167-1.508s2.413.603,3.318,1.508M4.977,11.613c.754,0,1.357-.302,1.961-.754.452-.453.754-1.207.754-1.961s-.302-1.357-.754-1.96c-.453-.453-1.207-.754-1.961-.754s-1.357.301-1.961.754c-.452.603-.603,1.206-.603,1.96s.302,1.358.754,1.961c.453.603,1.056.754,1.81.754"/>
      <polygon class="cls-1" points="18.701 4.072 21.114 4.072 21.114 13.875 12.065 13.875 12.065 4.072 14.478 4.072 14.478 11.462 18.55 11.462 18.701 4.072"/>
      <polygon class="cls-1" points="28.957 4.072 28.957 6.485 26.091 6.485 26.091 13.724 23.678 13.724 23.678 4.072 28.957 4.072"/>
      <path class="cls-1" d="M37.403,4.073h2.413v13.422h-9.351v-2.413h6.938v-2.865c-.754.905-1.81,1.508-3.167,1.508s-2.413-.452-3.469-1.357c-.905-.905-1.357-2.112-1.357-3.62,0-1.357.452-2.564,1.357-3.469.905-.905,2.112-1.357,3.469-1.357,1.206,0,2.262.452,3.167,1.508v-1.357ZM37.403,8.748c0-.754-.302-1.357-.754-1.961-.453-.603-1.056-.754-1.81-.754s-1.357.302-1.96.754c-.453.453-.755,1.207-.755,1.961s.302,1.357.755,1.961c.452.452,1.206.754,1.96.754,1.508,0,2.564-1.207,2.564-2.715"/>
      <polygon class="cls-1" points="44.793 4.072 51.731 4.072 51.731 13.875 49.317 13.875 49.317 6.485 44.944 6.485 44.944 13.875 42.531 13.875 42.531 0 44.944 0 44.944 4.072 44.793 4.072"/>
      <path class="cls-1" d="M61.835,11.462h1.056v2.262h-3.318v-.905c-.604.754-1.659,1.207-2.715,1.207-.905,0-1.81-.302-2.413-.905-.603-.603-1.056-1.357-1.056-2.262s.302-1.659,1.056-2.262c.603-.604,1.508-.905,2.413-.905h2.564v-1.358h-5.279v-2.262h7.692v7.39ZM59.271,10.708v-1.207h-1.961c-.905,0-1.508.604-1.508,1.207,0,.754.603,1.207,1.508,1.207,1.207.15,1.961-.453,1.961-1.207"/>
      <polygon class="cls-1" points="69.677 4.072 69.677 6.485 66.811 6.485 66.811 13.724 64.398 13.724 64.398 4.072 69.677 4.072"/>
      <path class="cls-1" d="M78.274,0h2.413v13.724h-2.413v-1.206c-.754,1.056-1.81,1.508-3.167,1.508s-2.413-.452-3.469-1.508c-.905-.905-1.357-2.262-1.357-3.62s.452-2.714,1.357-3.619c.905-.905,2.112-1.508,3.469-1.508s2.413.452,3.167,1.508V0ZM77.52,10.859c.452-.452.754-1.207.754-1.961s-.302-1.357-.754-1.96c-.452-.453-1.207-.754-1.961-.754s-1.357.301-1.96.754c-.453.452-.754,1.206-.754,1.96s.301,1.358.754,1.961c.452.452,1.206.754,1.96.754s1.358-.302,1.961-.754"/>
      <polygon class="cls-1" points="88.982 6.335 86.569 6.335 86.569 11.463 88.982 11.463 88.982 13.725 84.156 13.725 84.156 6.335 82.346 6.335 82.346 4.073 84.156 4.073 84.156 1.207 86.569 1.207 86.569 4.073 88.982 4.073 88.982 6.335"/>
      <path class="cls-1" d="M91.847,12.669c0-.754.603-1.207,1.207-1.207.754,0,1.206.604,1.206,1.207,0,.754-.603,1.206-1.206,1.206-.755,0-1.207-.452-1.207-1.206"/>
      <path class="cls-1" d="M97.729,11.01c0,.905.754,1.508,1.659,1.508s1.508-.603,1.508-1.357-.603-1.358-1.96-1.659c-1.81-.453-2.866-1.207-2.866-2.866,0-.905.302-1.508.905-1.96.603-.453,1.357-.754,2.262-.754s1.659.301,2.262.905c.604.603.905,1.206.905,2.111h-1.659c0-.754-.603-1.357-1.508-1.357-.754,0-1.357.603-1.357,1.206,0,.754.603,1.357,1.96,1.659,1.961.453,2.866,1.508,2.866,2.866,0,.905-.302,1.508-.905,2.111-.603.603-1.357.754-2.413.754s-1.659-.302-2.413-.905c-.603-.603-.905-1.357-.905-2.111l1.659-.151Z"/>
      <polygon class="cls-1" points="109.945 5.581 107.23 5.581 107.23 12.367 109.945 12.367 109.945 13.875 105.571 13.875 105.571 5.581 103.611 5.581 103.611 4.073 105.571 4.073 105.571 1.206 107.23 1.206 107.23 4.073 109.945 4.073 109.945 5.581"/>
      <path class="cls-1" d="M119.145,4.072h1.508v9.803h-1.508v-1.508c-.754,1.206-1.81,1.81-3.318,1.81-1.056,0-2.111-.302-2.715-1.056-.754-.754-1.055-1.659-1.055-2.715v-6.334h1.659v5.58c0,1.659,1.055,2.715,2.714,2.715s2.866-1.056,2.866-2.715v-5.58h-.151Z"/>
      <path class="cls-1" d="M131.512,0h1.659v13.724h-1.659v-1.81c-.754,1.358-2.112,2.112-3.771,2.112-1.357,0-2.563-.453-3.468-1.508-.905-.905-1.358-2.263-1.358-3.62s.453-2.715,1.358-3.619c.905-.905,2.111-1.509,3.468-1.509,1.659,0,3.017.754,3.771,2.112V0ZM130.607,11.462c.603-.603,1.056-1.508,1.056-2.564s-.302-1.81-1.056-2.564c-.603-.603-1.508-1.055-2.413-1.055-1.056,0-1.81.301-2.564,1.055-.603.604-1.056,1.508-1.056,2.564s.302,1.81,1.056,2.564c.603.603,1.508,1.056,2.564,1.056.905-.151,1.659-.453,2.413-1.056"/>
      <path class="cls-1" d="M135.734,1.055c0-.603.453-1.055,1.056-1.055s1.056.452,1.056,1.055-.453,1.056-1.056,1.056-1.056-.452-1.056-1.056M136.036,13.724V4.073h1.659v9.803l-1.659-.151Z"/>
      <path class="cls-1" d="M144.935,14.026c-1.508,0-2.715-.453-3.77-1.508-1.056-.905-1.508-2.263-1.508-3.62s.452-2.715,1.508-3.619c1.055-.905,2.262-1.509,3.77-1.509s2.715.453,3.62,1.509c1.055.904,1.508,2.111,1.508,3.619s-.453,2.715-1.508,3.62c-.905,1.055-2.112,1.508-3.62,1.508M147.499,11.462c.603-.603,1.056-1.508,1.056-2.564s-.302-1.81-1.056-2.564c-.603-.603-1.508-1.055-2.413-1.055-1.056,0-1.81.301-2.564,1.055-.603.604-1.056,1.508-1.056,2.564s.302,1.81,1.056,2.564c.603.603,1.508,1.056,2.564,1.056.905-.151,1.659-.453,2.413-1.056"/>
      <path class="cls-1" d="M158.056,3.168c0,1.659-1.358,3.016-3.017,3.016s-3.016-1.357-3.016-3.016,1.357-3.016,3.016-3.016,3.017,1.357,3.017,3.016M152.626,3.168c0,1.357.905,2.413,2.262,2.413s2.263-1.056,2.263-2.413-.905-2.413-2.263-2.413c-1.206,0-2.262,1.055-2.262,2.413M154.436,4.676h-.603V1.66c.301,0,.603-.151,1.206-.151s.754.151,1.056.151c.151.15.302.301.302.603s-.302.603-.604.754c.302.151.453.302.604.754.15.453.15.603.15.754h-.754c-.15-.151-.15-.452-.301-.754,0-.302-.302-.452-.604-.452h-.301v1.357h-.151ZM154.436,3.017h.302c.452,0,.754-.151.754-.452s-.151-.453-.604-.453h-.452v.905"/>
    </g>
  </g>
</svg>